<svg xmlns="http://www.w3.org/2000/svg" viewBox="0 0 1500 760" width="1500" height="760" role="img">
<rect x="0" y="0" width="1500" height="760" fill="#ffffff" stroke="#ffffff" stroke-width="0"/>
<text x="60" y="62" font-family="Lato, Arial, sans-serif" font-size="32" font-weight="900" fill="#24312b" text-anchor="start">Concrete Pad Moment Section Diagram</text>
<text x="60" y="98" font-family="Lato, Arial, sans-serif" font-size="20" font-weight="500" fill="#6b746f" text-anchor="start">Example: b = 1000 mm, D = 500 mm, f'c = 32 MPa, top face compression</text>
<text x="95" y="135" font-family="Lato, Arial, sans-serif" font-size="23" font-weight="900" fill="#24312b" text-anchor="start">Section view</text>
<text x="565" y="135" font-family="Lato, Arial, sans-serif" font-size="23" font-weight="900" fill="#24312b" text-anchor="start">Internal forces</text>
<text x="1060" y="135" font-family="Lato, Arial, sans-serif" font-size="23" font-weight="900" fill="#24312b" text-anchor="start">Strain diagram</text>
<rect x="145" y="145" width="260" height="485" fill="#f4f7f6" stroke="#24312b" stroke-width="3"/>
<rect x="145" y="145" width="260" height="34.338" fill="#dcefed" stroke="none" stroke-width="2"/>
<line x1="145" y1="183.606" x2="405" y2="183.606" stroke="#9aa6a0" stroke-width="2" stroke-dasharray="8 7"/>
<text x="427" y="191.606" font-family="Lato, Arial, sans-serif" font-size="17" font-weight="700" fill="#6b746f" text-anchor="start">neutral axis, x = 39.8 mm</text>
<line x1="145" y1="191.56" x2="405" y2="191.56" stroke="#b6bfba" stroke-width="2" stroke-dasharray="7 7"/>
<line x1="145" y1="581.5" x2="405" y2="581.5" stroke="#b6bfba" stroke-width="2" stroke-dasharray="7 7"/>
<circle cx="210" cy="191.56" r="13" fill="#c4675f" stroke="#7e3933" stroke-width="3"/>
<circle cx="275" cy="191.56" r="13" fill="#c4675f" stroke="#7e3933" stroke-width="3"/>
<circle cx="340" cy="191.56" r="13" fill="#c4675f" stroke="#7e3933" stroke-width="3"/>
<circle cx="210" cy="581.5" r="13" fill="#c4675f" stroke="#7e3933" stroke-width="3"/>
<circle cx="275" cy="581.5" r="13" fill="#c4675f" stroke="#7e3933" stroke-width="3"/>
<circle cx="340" cy="581.5" r="13" fill="#c4675f" stroke="#7e3933" stroke-width="3"/>
<text x="127" y="198.56" font-family="Lato, Arial, sans-serif" font-size="18" font-weight="800" fill="#24312b" text-anchor="end">top mat</text>
<text x="127" y="588.5" font-family="Lato, Arial, sans-serif" font-size="18" font-weight="800" fill="#24312b" text-anchor="end">bottom mat</text>
<text x="145" y="127" font-family="Lato, Arial, sans-serif" font-size="18" font-weight="800" fill="#24312b" text-anchor="start">compression face</text>
<text x="145" y="662" font-family="Lato, Arial, sans-serif" font-size="18" font-weight="800" fill="#24312b" text-anchor="start">tension face</text>
<line x1="99" y1="145" x2="99" y2="630" stroke="#6b746f" stroke-width="2" stroke-dasharray="5 6"/>
<text x="82" y="387.5" font-family="Lato, Arial, sans-serif" font-size="18" font-weight="800" fill="#6b746f" text-anchor="end">D = 500 mm</text>
<rect x="645" y="145" width="90" height="34.338" fill="#dcefed" stroke="#2f746f" stroke-width="2"/>
<line x1="735" y1="162.169" x2="865" y2="162.169" stroke="#2f746f" stroke-width="5"/><polygon points="865,162.169 847,154.169 847,170.169" fill="#2f746f"/>
<text x="881" y="169.169" font-family="Lato, Arial, sans-serif" font-size="19" font-weight="900" fill="#2f746f" text-anchor="start">Cc = 909 kN</text>
<text x="637" y="127" font-family="Lato, Arial, sans-serif" font-size="18" font-weight="700" fill="#6b746f" text-anchor="start">a = γx = 35.4 mm</text>
<line x1="865" y1="191.56" x2="735" y2="191.56" stroke="#b34841" stroke-width="5"/><polygon points="735,191.56 717,183.56 717,199.56" fill="#b34841"/>
<text x="880" y="198.56" font-family="Lato, Arial, sans-serif" font-size="19" font-weight="900" fill="#b34841" text-anchor="start">Fs1 = -124 kN</text>
<line x1="865" y1="581.5" x2="735" y2="581.5" stroke="#b34841" stroke-width="5"/><polygon points="735,581.5 717,573.5 717,589.5" fill="#b34841"/>
<text x="880" y="588.5" font-family="Lato, Arial, sans-serif" font-size="19" font-weight="900" fill="#b34841" text-anchor="start">Fs2 = -785 kN</text>
<line x1="645" y1="145" x2="645" y2="630" stroke="#9aa6a0" stroke-width="2"/>
<text x="720" y="664" font-family="Lato, Arial, sans-serif" font-size="20" font-weight="900" fill="#24312b" text-anchor="middle">ΣF = 0</text>
<text x="720" y="696" font-family="Lato, Arial, sans-serif" font-size="20" font-weight="900" fill="#24312b" text-anchor="middle">Muo = |ΣFiyi| = 343 kNm</text>
<line x1="1225" y1="145" x2="1225" y2="630" stroke="#9aa6a0" stroke-width="2"/>
<line x1="1055" y1="183.606" x2="1395" y2="183.606" stroke="#9aa6a0" stroke-width="2"/>
<line x1="1267" y1="145" x2="1105" y2="630" stroke="#2f746f" stroke-width="6"/>
<circle cx="1267" cy="145" r="10" fill="#2f746f" stroke="#2f746f" stroke-width="2"/>
<circle cx="1213.48" cy="191.56" r="10" fill="#c4675f" stroke="#7e3933" stroke-width="3"/>
<circle cx="1117.0" cy="581.5" r="10" fill="#c4675f" stroke="#7e3933" stroke-width="3"/>
<circle cx="1105" cy="630" r="10" fill="#b34841" stroke="#b34841" stroke-width="2"/>
<text x="1287" y="153" font-family="Lato, Arial, sans-serif" font-size="19" font-weight="900" fill="#2f746f" text-anchor="start">εcu = +0.0030</text>
<text x="1047" y="198.56" font-family="Lato, Arial, sans-serif" font-size="18" font-weight="800" fill="#6b746f" text-anchor="start">εs1 = -0.00062</text>
<text x="1085" y="620" font-family="Lato, Arial, sans-serif" font-size="18" font-weight="800" fill="#b34841" text-anchor="end">εs2 = -0.03091</text>
<text x="1287" y="167.606" font-family="Lato, Arial, sans-serif" font-size="18" font-weight="800" fill="#6b746f" text-anchor="start">compression +</text>
<text x="1117" y="664" font-family="Lato, Arial, sans-serif" font-size="18" font-weight="800" fill="#6b746f" text-anchor="start">tension -</text>
<text x="1225" y="696" font-family="Lato, Arial, sans-serif" font-size="20" font-weight="900" fill="#24312b" text-anchor="middle">linear strain</text>
</svg>