<?xml version="1.0" encoding="utf-8" standalone="no"?>
<!DOCTYPE svg PUBLIC "-//W3C//DTD SVG 1.1//EN"
  "http://www.w3.org/Graphics/SVG/1.1/DTD/svg11.dtd">
<svg xmlns:xlink="http://www.w3.org/1999/xlink" width="750.916041pt" height="277.488pt" viewBox="0 0 750.916041 277.488" xmlns="http://www.w3.org/2000/svg" version="1.1">
 <metadata>
  <rdf:RDF xmlns:dc="http://purl.org/dc/elements/1.1/" xmlns:cc="http://creativecommons.org/ns#" xmlns:rdf="http://www.w3.org/1999/02/22-rdf-syntax-ns#">
   <cc:Work>
    <dc:type rdf:resource="http://purl.org/dc/dcmitype/StillImage"/>
    <dc:date>2026-06-27T08:03:08.441427</dc:date>
    <dc:format>image/svg+xml</dc:format>
    <dc:creator>
     <cc:Agent>
      <dc:title>Matplotlib v3.11.0, https://matplotlib.org/</dc:title>
     </cc:Agent>
    </dc:creator>
   </cc:Work>
  </rdf:RDF>
 </metadata>
 <defs>
  <style type="text/css">*{stroke-linejoin: round; stroke-linecap: butt}</style>
 </defs>
 <g id="figure_1">
  <g id="patch_1">
   <path d="M 0 277.488 
L 750.916041 277.488 
L 750.916041 0 
L 0 0 
z
" style="fill: #ffffff"/>
  </g>
  <g id="axes_1">
   <g id="patch_2">
    <path d="M 68.943991 222.93216 
L 155.385578 222.93216 
L 155.385578 49.29408 
L 68.943991 49.29408 
z
" clip-path="url(#p2269b76e33)" style="fill: #ffffff; stroke: #111111; stroke-width: 1.4; stroke-linejoin: miter"/>
   </g>
   <g id="patch_3">
    <path d="M 68.943991 63.115671 
L 155.385578 63.115671 
L 155.385578 49.29408 
L 68.943991 49.29408 
z
" clip-path="url(#p2269b76e33)" style="fill: url(#hc486080f9b); stroke: #111111; stroke-width: 0.9; stroke-linejoin: miter"/>
   </g>
   <g id="line2d_1">
    <path d="M 68.943991 63.115671 
L 155.385578 63.115671 
" clip-path="url(#p2269b76e33)" style="fill: none; stroke-dasharray: 5,4; stroke-dashoffset: 0; stroke: #111111"/>
   </g>
   <g id="PathCollection_1">
    <defs>
     <path id="ma39d90f8e0" d="M 0 3.24037 
C 0.859356 3.24037 1.683631 2.898944 2.291288 2.291288 
C 2.898944 1.683631 3.24037 0.859356 3.24037 0 
C 3.24037 -0.859356 2.898944 -1.683631 2.291288 -2.291288 
C 1.683631 -2.898944 0.859356 -3.24037 0 -3.24037 
C -0.859356 -3.24037 -1.683631 -2.898944 -2.291288 -2.291288 
C -2.898944 -1.683631 -3.24037 -0.859356 -3.24037 0 
C -3.24037 0.859356 -2.898944 1.683631 -2.291288 2.291288 
C -1.683631 2.898944 -0.859356 3.24037 0 3.24037 
z
" style="stroke: #111111"/>
    </defs>
    <g clip-path="url(#p2269b76e33)">
     <use xlink:href="#ma39d90f8e0" x="90.554388" y="205.568352" style="fill: #111111; stroke: #111111"/>
     <use xlink:href="#ma39d90f8e0" x="112.164785" y="205.568352" style="fill: #111111; stroke: #111111"/>
     <use xlink:href="#ma39d90f8e0" x="133.775181" y="205.568352" style="fill: #111111; stroke: #111111"/>
    </g>
   </g>
   <g id="patch_4">
    <path d="M 31.897596 219.813748 
Q 31.897596 136.112073 31.897596 52.410398 
" style="fill: none; stroke: #111111; stroke-linecap: round"/>
    <path d="M 33.897596 215.813748 
L 31.897596 219.813748 
L 29.897596 215.813748 
" style="fill: none; stroke: #111111; stroke-linecap: round"/>
    <path d="M 29.897596 56.410398 
L 31.897596 52.410398 
L 33.897596 56.410398 
" style="fill: none; stroke: #111111; stroke-linecap: round"/>
   </g>
   <g id="patch_5">
    <path d="M 48.362661 202.45206 
Q 48.362661 127.432565 48.362661 52.413069 
" style="fill: none; stroke: #111111; stroke-linecap: round"/>
    <path d="M 50.362661 198.45206 
L 48.362661 202.45206 
L 46.362661 198.45206 
" style="fill: none; stroke: #111111; stroke-linecap: round"/>
    <path d="M 46.362661 56.413069 
L 48.362661 52.413069 
L 50.362661 56.413069 
" style="fill: none; stroke: #111111; stroke-linecap: round"/>
   </g>
   <g id="patch_6">
    <path d="M 152.265311 238.71744 
Q 112.164788 238.71744 72.064264 238.71744 
" style="fill: none; stroke: #111111; stroke-linecap: round"/>
    <path d="M 148.265311 236.71744 
L 152.265311 238.71744 
L 148.265311 240.71744 
" style="fill: none; stroke: #111111; stroke-linecap: round"/>
    <path d="M 76.064264 240.71744 
L 72.064264 238.71744 
L 76.064264 236.71744 
" style="fill: none; stroke: #111111; stroke-linecap: round"/>
   </g>
   <g id="text_1">
    <!-- $h$ -->
    <g transform="translate(21.174131 138.971831) scale(0.11 -0.11)">
     <defs>
      <path id="DejaVuSans-Oblique-4b" d="M 3566 2113 
L 3156 0 
L 2578 0 
L 2988 2091 
Q 3016 2238 3031 2350 
Q 3047 2463 3047 2528 
Q 3047 2791 2881 2937 
Q 2716 3084 2419 3084 
Q 1956 3084 1617 2771 
Q 1278 2459 1178 1941 
L 800 0 
L 225 0 
L 1172 4863 
L 1747 4863 
L 1375 2950 
Q 1594 3244 1934 3414 
Q 2275 3584 2650 3584 
Q 3113 3584 3367 3334 
Q 3622 3084 3622 2631 
Q 3622 2519 3608 2391 
Q 3594 2263 3566 2113 
z
" transform="scale(0.015625)"/>
     </defs>
     <use xlink:href="#DejaVuSans-Oblique-4b" transform="translate(0 0.015625)"/>
    </g>
   </g>
   <g id="text_2">
    <!-- $d$ -->
    <g transform="translate(38.668262 130.289927) scale(0.11 -0.11)">
     <defs>
      <path id="DejaVuSans-Oblique-47" d="M 2675 525 
Q 2444 222 2128 65 
Q 1813 -91 1428 -91 
Q 903 -91 598 267 
Q 294 625 294 1247 
Q 294 1766 478 2236 
Q 663 2706 1013 3078 
Q 1244 3325 1534 3454 
Q 1825 3584 2144 3584 
Q 2481 3584 2739 3421 
Q 2997 3259 3138 2956 
L 3513 4863 
L 4091 4863 
L 3144 0 
L 2566 0 
L 2675 525 
z
M 891 1350 
Q 891 897 1095 644 
Q 1300 391 1663 391 
Q 1931 391 2161 520 
Q 2391 650 2566 903 
Q 2750 1166 2856 1509 
Q 2963 1853 2963 2188 
Q 2963 2622 2758 2865 
Q 2553 3109 2194 3109 
Q 1922 3109 1687 2981 
Q 1453 2853 1288 2613 
Q 1106 2353 998 2009 
Q 891 1666 891 1350 
z
" transform="scale(0.015625)"/>
     </defs>
     <use xlink:href="#DejaVuSans-Oblique-47" transform="translate(0 0.015625)"/>
    </g>
   </g>
   <g id="text_3">
    <!-- $b$ -->
    <g transform="translate(108.644785 252.099671) scale(0.11 -0.11)">
     <defs>
      <path id="DejaVuSans-Oblique-45" d="M 3169 2138 
Q 3169 2591 2961 2847 
Q 2753 3103 2388 3103 
Q 2122 3103 1889 2973 
Q 1656 2844 1484 2597 
Q 1303 2338 1198 1995 
Q 1094 1653 1094 1313 
Q 1094 881 1298 636 
Q 1503 391 1863 391 
Q 2134 391 2365 517 
Q 2597 644 2772 891 
Q 2950 1147 3059 1487 
Q 3169 1828 3169 2138 
z
M 1381 2969 
Q 1594 3256 1914 3420 
Q 2234 3584 2584 3584 
Q 3122 3584 3439 3221 
Q 3756 2859 3756 2241 
Q 3756 1734 3570 1259 
Q 3384 784 3041 416 
Q 2816 172 2522 40 
Q 2228 -91 1906 -91 
Q 1566 -91 1316 65 
Q 1066 222 909 531 
L 806 0 
L 231 0 
L 1178 4863 
L 1753 4863 
L 1381 2969 
z
" transform="scale(0.015625)"/>
     </defs>
     <use xlink:href="#DejaVuSans-Oblique-45" transform="translate(0 0.015625)"/>
    </g>
   </g>
   <g id="text_4">
    <!-- $A_{conc}$ -->
    <g transform="translate(167.734376 59.062297) scale(0.11 -0.11)">
     <defs>
      <path id="DejaVuSans-Oblique-24" d="M 2356 4666 
L 3072 4666 
L 3938 0 
L 3278 0 
L 3084 1197 
L 984 1197 
L 325 0 
L -341 0 
L 2356 4666 
z
M 2584 4044 
L 1275 1722 
L 2988 1722 
L 2584 4044 
z
" transform="scale(0.015625)"/>
      <path id="DejaVuSans-Oblique-46" d="M 3431 3366 
L 3316 2797 
Q 3109 2947 2876 3022 
Q 2644 3097 2394 3097 
Q 2119 3097 1870 3000 
Q 1622 2903 1453 2725 
Q 1184 2453 1037 2087 
Q 891 1722 891 1331 
Q 891 859 1127 628 
Q 1363 397 1844 397 
Q 2081 397 2348 469 
Q 2616 541 2906 684 
L 2797 116 
Q 2547 13 2283 -39 
Q 2019 -91 1741 -91 
Q 1044 -91 669 257 
Q 294 606 294 1253 
Q 294 1797 489 2255 
Q 684 2713 1069 3078 
Q 1331 3328 1684 3456 
Q 2038 3584 2456 3584 
Q 2700 3584 2940 3529 
Q 3181 3475 3431 3366 
z
" transform="scale(0.015625)"/>
      <path id="DejaVuSans-Oblique-52" d="M 1625 -91 
Q 1009 -91 651 289 
Q 294 669 294 1325 
Q 294 1706 417 2101 
Q 541 2497 738 2766 
Q 1047 3184 1428 3384 
Q 1809 3584 2291 3584 
Q 2888 3584 3255 3212 
Q 3622 2841 3622 2241 
Q 3622 1825 3500 1412 
Q 3378 1000 3181 728 
Q 2875 309 2494 109 
Q 2113 -91 1625 -91 
z
M 891 1344 
Q 891 869 1089 633 
Q 1288 397 1691 397 
Q 2269 397 2648 901 
Q 3028 1406 3028 2181 
Q 3028 2634 2825 2865 
Q 2622 3097 2228 3097 
Q 1903 3097 1650 2945 
Q 1397 2794 1197 2484 
Q 1050 2253 970 1956 
Q 891 1659 891 1344 
z
" transform="scale(0.015625)"/>
      <path id="DejaVuSans-Oblique-51" d="M 3566 2113 
L 3156 0 
L 2578 0 
L 2988 2091 
Q 3016 2238 3031 2350 
Q 3047 2463 3047 2528 
Q 3047 2791 2881 2937 
Q 2716 3084 2419 3084 
Q 1956 3084 1622 2776 
Q 1288 2469 1184 1941 
L 800 0 
L 225 0 
L 903 3500 
L 1478 3500 
L 1363 2950 
Q 1603 3253 1940 3418 
Q 2278 3584 2650 3584 
Q 3113 3584 3367 3334 
Q 3622 3084 3622 2631 
Q 3622 2519 3608 2391 
Q 3594 2263 3566 2113 
z
" transform="scale(0.015625)"/>
     </defs>
     <use xlink:href="#DejaVuSans-Oblique-24" transform="translate(0 0.09375)"/>
     <use xlink:href="#DejaVuSans-Oblique-46" transform="translate(68.408203 -14.906201) scale(0.7)"/>
     <use xlink:href="#DejaVuSans-Oblique-52" transform="translate(106.894531 -14.906201) scale(0.7)"/>
     <use xlink:href="#DejaVuSans-Oblique-51" transform="translate(149.72168 -14.906201) scale(0.7)"/>
     <use xlink:href="#DejaVuSans-Oblique-46" transform="translate(194.086914 -14.906201) scale(0.7)"/>
    </g>
   </g>
   <g id="text_5">
    <!-- N.A. -->
    <g transform="translate(100.888066 76.496613) scale(0.11 -0.11)">
     <defs>
      <path id="DejaVuSans-31" d="M 628 4666 
L 1478 4666 
L 3547 763 
L 3547 4666 
L 4159 4666 
L 4159 0 
L 3309 0 
L 1241 3903 
L 1241 0 
L 628 0 
L 628 4666 
z
" transform="scale(0.015625)"/>
      <path id="DejaVuSans-11" d="M 684 794 
L 1344 794 
L 1344 0 
L 684 0 
L 684 794 
z
" transform="scale(0.015625)"/>
      <path id="DejaVuSans-24" d="M 2188 4044 
L 1331 1722 
L 3047 1722 
L 2188 4044 
z
M 1831 4666 
L 2547 4666 
L 4325 0 
L 3669 0 
L 3244 1197 
L 1141 1197 
L 716 0 
L 50 0 
L 1831 4666 
z
" transform="scale(0.015625)"/>
     </defs>
     <use xlink:href="#DejaVuSans-31"/>
     <use xlink:href="#DejaVuSans-11" transform="translate(74.8125 0)"/>
     <use xlink:href="#DejaVuSans-24" transform="translate(106.59375 0)"/>
     <use xlink:href="#DejaVuSans-11" transform="translate(173.25 0)"/>
    </g>
   </g>
   <g id="text_6">
    <!-- $A_s$ -->
    <g transform="translate(106.224785 193.955934) scale(0.11 -0.11)">
     <defs>
      <path id="DejaVuSans-Oblique-56" d="M 3200 3397 
L 3091 2853 
Q 2863 2978 2609 3040 
Q 2356 3103 2088 3103 
Q 1634 3103 1373 2948 
Q 1113 2794 1113 2528 
Q 1113 2219 1719 2053 
Q 1766 2041 1788 2034 
L 1972 1978 
Q 2547 1819 2739 1644 
Q 2931 1469 2931 1166 
Q 2931 609 2489 259 
Q 2047 -91 1331 -91 
Q 1053 -91 747 -37 
Q 441 16 72 128 
L 184 722 
Q 500 559 806 475 
Q 1113 391 1394 391 
Q 1816 391 2080 572 
Q 2344 753 2344 1031 
Q 2344 1331 1650 1516 
L 1591 1531 
L 1394 1581 
Q 956 1697 753 1886 
Q 550 2075 550 2369 
Q 550 2928 970 3256 
Q 1391 3584 2113 3584 
Q 2397 3584 2667 3537 
Q 2938 3491 3200 3397 
z
" transform="scale(0.015625)"/>
     </defs>
     <use xlink:href="#DejaVuSans-Oblique-24" transform="translate(0 0.09375)"/>
     <use xlink:href="#DejaVuSans-Oblique-56" transform="translate(68.408203 -14.906201) scale(0.7)"/>
    </g>
   </g>
   <g id="text_7">
    <!-- (a) Cross section -->
    <g transform="translate(72.709239 263.7108) scale(0.105 -0.105)">
     <defs>
      <path id="DejaVuSans-Bold-b" d="M 2413 -844 
L 1484 -844 
Q 1006 -72 778 623 
Q 550 1319 550 2003 
Q 550 2688 779 3389 
Q 1009 4091 1484 4856 
L 2413 4856 
Q 2013 4116 1813 3408 
Q 1613 2700 1613 2009 
Q 1613 1319 1811 609 
Q 2009 -100 2413 -844 
z
" transform="scale(0.015625)"/>
      <path id="DejaVuSans-Bold-44" d="M 2106 1575 
Q 1756 1575 1579 1456 
Q 1403 1338 1403 1106 
Q 1403 894 1545 773 
Q 1688 653 1941 653 
Q 2256 653 2472 879 
Q 2688 1106 2688 1447 
L 2688 1575 
L 2106 1575 
z
M 3816 1997 
L 3816 0 
L 2688 0 
L 2688 519 
Q 2463 200 2181 54 
Q 1900 -91 1497 -91 
Q 953 -91 614 226 
Q 275 544 275 1050 
Q 275 1666 698 1953 
Q 1122 2241 2028 2241 
L 2688 2241 
L 2688 2328 
Q 2688 2594 2478 2717 
Q 2269 2841 1825 2841 
Q 1466 2841 1156 2769 
Q 847 2697 581 2553 
L 581 3406 
Q 941 3494 1303 3539 
Q 1666 3584 2028 3584 
Q 2975 3584 3395 3211 
Q 3816 2838 3816 1997 
z
" transform="scale(0.015625)"/>
      <path id="DejaVuSans-Bold-c" d="M 513 -844 
Q 913 -100 1113 609 
Q 1313 1319 1313 2009 
Q 1313 2700 1113 3408 
Q 913 4116 513 4856 
L 1441 4856 
Q 1916 4091 2145 3389 
Q 2375 2688 2375 2003 
Q 2375 1319 2147 623 
Q 1919 -72 1441 -844 
L 513 -844 
z
" transform="scale(0.015625)"/>
      <path id="DejaVuSans-Bold-3" transform="scale(0.015625)"/>
      <path id="DejaVuSans-Bold-26" d="M 4288 256 
Q 3956 84 3597 -3 
Q 3238 -91 2847 -91 
Q 1681 -91 1000 561 
Q 319 1213 319 2328 
Q 319 3447 1000 4098 
Q 1681 4750 2847 4750 
Q 3238 4750 3597 4662 
Q 3956 4575 4288 4403 
L 4288 3438 
Q 3953 3666 3628 3772 
Q 3303 3878 2944 3878 
Q 2300 3878 1931 3465 
Q 1563 3053 1563 2328 
Q 1563 1606 1931 1193 
Q 2300 781 2944 781 
Q 3303 781 3628 887 
Q 3953 994 4288 1222 
L 4288 256 
z
" transform="scale(0.015625)"/>
      <path id="DejaVuSans-Bold-55" d="M 3138 2547 
Q 2991 2616 2845 2648 
Q 2700 2681 2553 2681 
Q 2122 2681 1889 2404 
Q 1656 2128 1656 1613 
L 1656 0 
L 538 0 
L 538 3500 
L 1656 3500 
L 1656 2925 
Q 1872 3269 2151 3426 
Q 2431 3584 2822 3584 
Q 2878 3584 2943 3579 
Q 3009 3575 3134 3559 
L 3138 2547 
z
" transform="scale(0.015625)"/>
      <path id="DejaVuSans-Bold-52" d="M 2203 2784 
Q 1831 2784 1636 2517 
Q 1441 2250 1441 1747 
Q 1441 1244 1636 976 
Q 1831 709 2203 709 
Q 2569 709 2762 976 
Q 2956 1244 2956 1747 
Q 2956 2250 2762 2517 
Q 2569 2784 2203 2784 
z
M 2203 3584 
Q 3106 3584 3614 3096 
Q 4122 2609 4122 1747 
Q 4122 884 3614 396 
Q 3106 -91 2203 -91 
Q 1297 -91 786 396 
Q 275 884 275 1747 
Q 275 2609 786 3096 
Q 1297 3584 2203 3584 
z
" transform="scale(0.015625)"/>
      <path id="DejaVuSans-Bold-56" d="M 3272 3391 
L 3272 2541 
Q 2913 2691 2578 2766 
Q 2244 2841 1947 2841 
Q 1628 2841 1473 2761 
Q 1319 2681 1319 2516 
Q 1319 2381 1436 2309 
Q 1553 2238 1856 2203 
L 2053 2175 
Q 2913 2066 3209 1816 
Q 3506 1566 3506 1031 
Q 3506 472 3093 190 
Q 2681 -91 1863 -91 
Q 1516 -91 1145 -36 
Q 775 19 384 128 
L 384 978 
Q 719 816 1070 734 
Q 1422 653 1784 653 
Q 2113 653 2278 743 
Q 2444 834 2444 1013 
Q 2444 1163 2330 1236 
Q 2216 1309 1875 1350 
L 1678 1375 
Q 931 1469 631 1722 
Q 331 1975 331 2491 
Q 331 3047 712 3315 
Q 1094 3584 1881 3584 
Q 2191 3584 2531 3537 
Q 2872 3491 3272 3391 
z
" transform="scale(0.015625)"/>
      <path id="DejaVuSans-Bold-48" d="M 4031 1759 
L 4031 1441 
L 1416 1441 
Q 1456 1047 1700 850 
Q 1944 653 2381 653 
Q 2734 653 3104 758 
Q 3475 863 3866 1075 
L 3866 213 
Q 3469 63 3072 -14 
Q 2675 -91 2278 -91 
Q 1328 -91 801 392 
Q 275 875 275 1747 
Q 275 2603 792 3093 
Q 1309 3584 2216 3584 
Q 3041 3584 3536 3087 
Q 4031 2591 4031 1759 
z
M 2881 2131 
Q 2881 2450 2695 2645 
Q 2509 2841 2209 2841 
Q 1884 2841 1681 2658 
Q 1478 2475 1428 2131 
L 2881 2131 
z
" transform="scale(0.015625)"/>
      <path id="DejaVuSans-Bold-46" d="M 3366 3391 
L 3366 2478 
Q 3138 2634 2908 2709 
Q 2678 2784 2431 2784 
Q 1963 2784 1702 2511 
Q 1441 2238 1441 1747 
Q 1441 1256 1702 982 
Q 1963 709 2431 709 
Q 2694 709 2930 787 
Q 3166 866 3366 1019 
L 3366 103 
Q 3103 6 2833 -42 
Q 2563 -91 2291 -91 
Q 1344 -91 809 395 
Q 275 881 275 1747 
Q 275 2613 809 3098 
Q 1344 3584 2291 3584 
Q 2566 3584 2833 3536 
Q 3100 3488 3366 3391 
z
" transform="scale(0.015625)"/>
      <path id="DejaVuSans-Bold-57" d="M 1759 4494 
L 1759 3500 
L 2913 3500 
L 2913 2700 
L 1759 2700 
L 1759 1216 
Q 1759 972 1856 886 
Q 1953 800 2241 800 
L 2816 800 
L 2816 0 
L 1856 0 
Q 1194 0 917 276 
Q 641 553 641 1216 
L 641 2700 
L 84 2700 
L 84 3500 
L 641 3500 
L 641 4494 
L 1759 4494 
z
" transform="scale(0.015625)"/>
      <path id="DejaVuSans-Bold-4c" d="M 538 3500 
L 1656 3500 
L 1656 0 
L 538 0 
L 538 3500 
z
M 538 4863 
L 1656 4863 
L 1656 3950 
L 538 3950 
L 538 4863 
z
" transform="scale(0.015625)"/>
      <path id="DejaVuSans-Bold-51" d="M 4056 2131 
L 4056 0 
L 2931 0 
L 2931 347 
L 2931 1631 
Q 2931 2084 2911 2256 
Q 2891 2428 2841 2509 
Q 2775 2619 2662 2680 
Q 2550 2741 2406 2741 
Q 2056 2741 1856 2470 
Q 1656 2200 1656 1722 
L 1656 0 
L 538 0 
L 538 3500 
L 1656 3500 
L 1656 2988 
Q 1909 3294 2193 3439 
Q 2478 3584 2822 3584 
Q 3428 3584 3742 3212 
Q 4056 2841 4056 2131 
z
" transform="scale(0.015625)"/>
     </defs>
     <use xlink:href="#DejaVuSans-Bold-b"/>
     <use xlink:href="#DejaVuSans-Bold-44" transform="translate(45.703125 0)"/>
     <use xlink:href="#DejaVuSans-Bold-c" transform="translate(113.1875 0)"/>
     <use xlink:href="#DejaVuSans-Bold-3" transform="translate(158.890625 0)"/>
     <use xlink:href="#DejaVuSans-Bold-26" transform="translate(193.703125 0)"/>
     <use xlink:href="#DejaVuSans-Bold-55" transform="translate(267.09375 0)"/>
     <use xlink:href="#DejaVuSans-Bold-52" transform="translate(316.40625 0)"/>
     <use xlink:href="#DejaVuSans-Bold-56" transform="translate(385.109375 0)"/>
     <use xlink:href="#DejaVuSans-Bold-56" transform="translate(444.625 0)"/>
     <use xlink:href="#DejaVuSans-Bold-3" transform="translate(504.140625 0)"/>
     <use xlink:href="#DejaVuSans-Bold-56" transform="translate(538.953125 0)"/>
     <use xlink:href="#DejaVuSans-Bold-48" transform="translate(598.46875 0)"/>
     <use xlink:href="#DejaVuSans-Bold-46" transform="translate(666.296875 0)"/>
     <use xlink:href="#DejaVuSans-Bold-57" transform="translate(725.578125 0)"/>
     <use xlink:href="#DejaVuSans-Bold-4c" transform="translate(773.375 0)"/>
     <use xlink:href="#DejaVuSans-Bold-52" transform="translate(807.65625 0)"/>
     <use xlink:href="#DejaVuSans-Bold-51" transform="translate(876.359375 0)"/>
    </g>
   </g>
  </g>
  <g id="axes_2">
   <g id="line2d_2">
    <path d="M 262.931196 62.44848 
L 437.97051 62.44848 
" clip-path="url(#pb5946efa38)" style="fill: none; stroke-dasharray: 5,4; stroke-dashoffset: 0; stroke: #111111"/>
   </g>
   <g id="line2d_3">
    <path d="M 344.864492 217.6704 
L 344.864492 49.29408 
" clip-path="url(#pb5946efa38)" style="fill: none; stroke: #111111; stroke-linecap: square"/>
   </g>
   <g id="line2d_4">
    <path d="M 289.000881 217.6704 
L 385.83114 49.29408 
" clip-path="url(#pb5946efa38)" style="fill: none; stroke: #111111; stroke-width: 1.1; stroke-linecap: square"/>
   </g>
   <g id="line2d_5">
    <path d="M 344.864492 49.29408 
L 385.83114 49.29408 
" clip-path="url(#pb5946efa38)" style="fill: none; stroke: #111111; stroke-linecap: square"/>
   </g>
   <g id="line2d_6">
    <path d="M 344.864492 217.6704 
L 289.000881 217.6704 
" clip-path="url(#pb5946efa38)" style="fill: none; stroke: #111111; stroke-linecap: square"/>
   </g>
   <g id="patch_7">
    <path d="M 382.715282 28.24704 
Q 365.350239 28.24704 347.985197 28.24704 
" style="fill: none; stroke: #111111; stroke-linecap: round"/>
    <path d="M 378.715282 26.24704 
L 382.715282 28.24704 
L 378.715282 30.24704 
" style="fill: none; stroke: #111111; stroke-linecap: round"/>
    <path d="M 351.985197 30.24704 
L 347.985197 28.24704 
L 351.985197 26.24704 
" style="fill: none; stroke: #111111; stroke-linecap: round"/>
   </g>
   <g id="patch_8">
    <path d="M 322.519048 59.329667 
Q 322.519048 55.871612 322.519048 52.413557 
" style="fill: none; stroke: #111111; stroke-linecap: round"/>
    <path d="M 324.519048 55.329667 
L 322.519048 59.329667 
L 320.519048 55.329667 
" style="fill: none; stroke: #111111; stroke-linecap: round"/>
    <path d="M 320.519048 56.413557 
L 322.519048 52.413557 
L 324.519048 56.413557 
" style="fill: none; stroke: #111111; stroke-linecap: round"/>
   </g>
   <g id="text_8">
    <!-- $\epsilon_{cu}=0.003$ -->
    <g transform="translate(336.525316 19.147379) scale(0.105 -0.105)">
     <defs>
      <path id="DejaVuSans-Oblique-349" d="M 1263 1888 
Q 925 1963 778 2166 
Q 669 2309 669 2503 
Q 669 3034 1175 3344 
Q 1575 3588 2188 3588 
Q 2425 3588 2684 3550 
Q 2944 3513 3234 3438 
L 3134 2916 
Q 2847 3006 2606 3047 
Q 2359 3088 2138 3088 
Q 1766 3088 1522 2944 
Q 1228 2772 1228 2522 
Q 1228 2356 1381 2241 
Q 1563 2103 1925 2103 
L 2409 2103 
L 2319 1628 
L 1856 1628 
Q 1425 1628 1172 1469 
Q 828 1253 828 916 
Q 828 703 1013 563 
Q 1244 388 1716 388 
Q 2006 388 2284 444 
Q 2563 503 2806 619 
L 2700 84 
Q 2403 -3 2131 -47 
Q 1859 -91 1609 -91 
Q 866 -91 516 194 
Q 250 413 250 781 
Q 250 1278 600 1584 
Q 859 1813 1263 1888 
z
" transform="scale(0.015625)"/>
      <path id="DejaVuSans-Oblique-58" d="M 428 1388 
L 838 3500 
L 1416 3500 
L 1006 1409 
Q 975 1256 961 1147 
Q 947 1038 947 966 
Q 947 700 1109 554 
Q 1272 409 1569 409 
Q 2031 409 2368 721 
Q 2706 1034 2809 1563 
L 3194 3500 
L 3769 3500 
L 3091 0 
L 2516 0 
L 2631 550 
Q 2388 244 2052 76 
Q 1716 -91 1338 -91 
Q 878 -91 622 161 
Q 366 413 366 863 
Q 366 956 381 1097 
Q 397 1238 428 1388 
z
" transform="scale(0.015625)"/>
      <path id="DejaVuSans-20" d="M 678 2906 
L 4684 2906 
L 4684 2381 
L 678 2381 
L 678 2906 
z
M 678 1631 
L 4684 1631 
L 4684 1100 
L 678 1100 
L 678 1631 
z
" transform="scale(0.015625)"/>
      <path id="DejaVuSans-13" d="M 2034 4250 
Q 1547 4250 1301 3770 
Q 1056 3291 1056 2328 
Q 1056 1369 1301 889 
Q 1547 409 2034 409 
Q 2525 409 2770 889 
Q 3016 1369 3016 2328 
Q 3016 3291 2770 3770 
Q 2525 4250 2034 4250 
z
M 2034 4750 
Q 2819 4750 3233 4129 
Q 3647 3509 3647 2328 
Q 3647 1150 3233 529 
Q 2819 -91 2034 -91 
Q 1250 -91 836 529 
Q 422 1150 422 2328 
Q 422 3509 836 4129 
Q 1250 4750 2034 4750 
z
" transform="scale(0.015625)"/>
      <path id="DejaVuSans-16" d="M 2597 2516 
Q 3050 2419 3304 2112 
Q 3559 1806 3559 1356 
Q 3559 666 3084 287 
Q 2609 -91 1734 -91 
Q 1441 -91 1130 -33 
Q 819 25 488 141 
L 488 750 
Q 750 597 1062 519 
Q 1375 441 1716 441 
Q 2309 441 2620 675 
Q 2931 909 2931 1356 
Q 2931 1769 2642 2001 
Q 2353 2234 1838 2234 
L 1294 2234 
L 1294 2753 
L 1863 2753 
Q 2328 2753 2575 2939 
Q 2822 3125 2822 3475 
Q 2822 3834 2567 4026 
Q 2313 4219 1838 4219 
Q 1578 4219 1281 4162 
Q 984 4106 628 3988 
L 628 4550 
Q 988 4650 1302 4700 
Q 1616 4750 1894 4750 
Q 2613 4750 3031 4423 
Q 3450 4097 3450 3541 
Q 3450 3153 3228 2886 
Q 3006 2619 2597 2516 
z
" transform="scale(0.015625)"/>
     </defs>
     <use xlink:href="#DejaVuSans-Oblique-349" transform="translate(0 0.78125)"/>
     <use xlink:href="#DejaVuSans-Oblique-46" transform="translate(54.052734 -14.218701) scale(0.7)"/>
     <use xlink:href="#DejaVuSans-Oblique-58" transform="translate(92.539062 -14.218701) scale(0.7)"/>
     <use xlink:href="#DejaVuSans-20" transform="translate(159.121094 0.78125)"/>
     <use xlink:href="#DejaVuSans-13" transform="translate(262.392578 0.78125)"/>
     <use xlink:href="#DejaVuSans-11" transform="translate(326.015625 0.78125)"/>
     <use xlink:href="#DejaVuSans-13" transform="translate(357.802734 0.78125)"/>
     <use xlink:href="#DejaVuSans-13" transform="translate(421.425781 0.78125)"/>
     <use xlink:href="#DejaVuSans-16" transform="translate(485.048828 0.78125)"/>
    </g>
   </g>
   <g id="text_9">
    <!-- $x$ -->
    <g transform="translate(308.046326 58.728702) scale(0.11 -0.11)">
     <defs>
      <path id="DejaVuSans-Oblique-5b" d="M 3841 3500 
L 2234 1784 
L 3219 0 
L 2559 0 
L 1819 1388 
L 531 0 
L -166 0 
L 1556 1844 
L 641 3500 
L 1300 3500 
L 1972 2234 
L 3144 3500 
L 3841 3500 
z
" transform="scale(0.015625)"/>
     </defs>
     <use xlink:href="#DejaVuSans-Oblique-5b" transform="translate(0 0.3125)"/>
    </g>
   </g>
   <g id="text_10">
    <!-- $\epsilon_s$ -->
    <g transform="translate(296.449363 238.71744) scale(0.11 -0.11)">
     <use xlink:href="#DejaVuSans-Oblique-349" transform="translate(0 0.9375)"/>
     <use xlink:href="#DejaVuSans-Oblique-56" transform="translate(54.052734 -14.062451) scale(0.7)"/>
    </g>
   </g>
   <g id="text_11">
    <!-- (b) Strain diagram -->
    <g transform="translate(293.956741 259.76448) scale(0.105 -0.105)">
     <defs>
      <path id="DejaVuSans-Bold-45" d="M 2400 722 
Q 2759 722 2948 984 
Q 3138 1247 3138 1747 
Q 3138 2247 2948 2509 
Q 2759 2772 2400 2772 
Q 2041 2772 1848 2508 
Q 1656 2244 1656 1747 
Q 1656 1250 1848 986 
Q 2041 722 2400 722 
z
M 1656 2988 
Q 1888 3294 2169 3439 
Q 2450 3584 2816 3584 
Q 3463 3584 3878 3070 
Q 4294 2556 4294 1747 
Q 4294 938 3878 423 
Q 3463 -91 2816 -91 
Q 2450 -91 2169 54 
Q 1888 200 1656 506 
L 1656 0 
L 538 0 
L 538 4863 
L 1656 4863 
L 1656 2988 
z
" transform="scale(0.015625)"/>
      <path id="DejaVuSans-Bold-36" d="M 3834 4519 
L 3834 3531 
Q 3450 3703 3084 3790 
Q 2719 3878 2394 3878 
Q 1963 3878 1756 3759 
Q 1550 3641 1550 3391 
Q 1550 3203 1689 3098 
Q 1828 2994 2194 2919 
L 2706 2816 
Q 3484 2659 3812 2340 
Q 4141 2022 4141 1434 
Q 4141 663 3683 286 
Q 3225 -91 2284 -91 
Q 1841 -91 1394 -6 
Q 947 78 500 244 
L 500 1259 
Q 947 1022 1364 901 
Q 1781 781 2169 781 
Q 2563 781 2772 912 
Q 2981 1044 2981 1288 
Q 2981 1506 2839 1625 
Q 2697 1744 2272 1838 
L 1806 1941 
Q 1106 2091 782 2419 
Q 459 2747 459 3303 
Q 459 4000 909 4375 
Q 1359 4750 2203 4750 
Q 2588 4750 2994 4692 
Q 3400 4634 3834 4519 
z
" transform="scale(0.015625)"/>
      <path id="DejaVuSans-Bold-47" d="M 2919 2988 
L 2919 4863 
L 4044 4863 
L 4044 0 
L 2919 0 
L 2919 506 
Q 2688 197 2409 53 
Q 2131 -91 1766 -91 
Q 1119 -91 703 423 
Q 288 938 288 1747 
Q 288 2556 703 3070 
Q 1119 3584 1766 3584 
Q 2128 3584 2408 3439 
Q 2688 3294 2919 2988 
z
M 2181 722 
Q 2541 722 2730 984 
Q 2919 1247 2919 1747 
Q 2919 2247 2730 2509 
Q 2541 2772 2181 2772 
Q 1825 2772 1636 2509 
Q 1447 2247 1447 1747 
Q 1447 1247 1636 984 
Q 1825 722 2181 722 
z
" transform="scale(0.015625)"/>
      <path id="DejaVuSans-Bold-4a" d="M 2919 594 
Q 2688 288 2409 144 
Q 2131 0 1766 0 
Q 1125 0 706 504 
Q 288 1009 288 1791 
Q 288 2575 706 3076 
Q 1125 3578 1766 3578 
Q 2131 3578 2409 3434 
Q 2688 3291 2919 2981 
L 2919 3500 
L 4044 3500 
L 4044 353 
Q 4044 -491 3511 -936 
Q 2978 -1381 1966 -1381 
Q 1638 -1381 1331 -1331 
Q 1025 -1281 716 -1178 
L 716 -306 
Q 1009 -475 1290 -558 
Q 1572 -641 1856 -641 
Q 2406 -641 2662 -400 
Q 2919 -159 2919 353 
L 2919 594 
z
M 2181 2772 
Q 1834 2772 1640 2515 
Q 1447 2259 1447 1791 
Q 1447 1309 1634 1061 
Q 1822 813 2181 813 
Q 2531 813 2725 1069 
Q 2919 1325 2919 1791 
Q 2919 2259 2725 2515 
Q 2531 2772 2181 2772 
z
" transform="scale(0.015625)"/>
      <path id="DejaVuSans-Bold-50" d="M 3781 2919 
Q 3994 3244 4286 3414 
Q 4578 3584 4928 3584 
Q 5531 3584 5847 3212 
Q 6163 2841 6163 2131 
L 6163 0 
L 5038 0 
L 5038 1825 
Q 5041 1866 5042 1909 
Q 5044 1953 5044 2034 
Q 5044 2406 4934 2573 
Q 4825 2741 4581 2741 
Q 4263 2741 4089 2478 
Q 3916 2216 3909 1719 
L 3909 0 
L 2784 0 
L 2784 1825 
Q 2784 2406 2684 2573 
Q 2584 2741 2328 2741 
Q 2006 2741 1831 2477 
Q 1656 2213 1656 1722 
L 1656 0 
L 531 0 
L 531 3500 
L 1656 3500 
L 1656 2988 
Q 1863 3284 2130 3434 
Q 2397 3584 2719 3584 
Q 3081 3584 3359 3409 
Q 3638 3234 3781 2919 
z
" transform="scale(0.015625)"/>
     </defs>
     <use xlink:href="#DejaVuSans-Bold-b"/>
     <use xlink:href="#DejaVuSans-Bold-45" transform="translate(45.703125 0)"/>
     <use xlink:href="#DejaVuSans-Bold-c" transform="translate(117.28125 0)"/>
     <use xlink:href="#DejaVuSans-Bold-3" transform="translate(162.984375 0)"/>
     <use xlink:href="#DejaVuSans-Bold-36" transform="translate(197.796875 0)"/>
     <use xlink:href="#DejaVuSans-Bold-57" transform="translate(269.8125 0)"/>
     <use xlink:href="#DejaVuSans-Bold-55" transform="translate(317.609375 0)"/>
     <use xlink:href="#DejaVuSans-Bold-44" transform="translate(366.921875 0)"/>
     <use xlink:href="#DejaVuSans-Bold-4c" transform="translate(434.40625 0)"/>
     <use xlink:href="#DejaVuSans-Bold-51" transform="translate(468.6875 0)"/>
     <use xlink:href="#DejaVuSans-Bold-3" transform="translate(539.875 0)"/>
     <use xlink:href="#DejaVuSans-Bold-47" transform="translate(574.6875 0)"/>
     <use xlink:href="#DejaVuSans-Bold-4c" transform="translate(646.265625 0)"/>
     <use xlink:href="#DejaVuSans-Bold-44" transform="translate(680.546875 0)"/>
     <use xlink:href="#DejaVuSans-Bold-4a" transform="translate(748.03125 0)"/>
     <use xlink:href="#DejaVuSans-Bold-55" transform="translate(819.609375 0)"/>
     <use xlink:href="#DejaVuSans-Bold-44" transform="translate(868.921875 0)"/>
     <use xlink:href="#DejaVuSans-Bold-50" transform="translate(936.40625 0)"/>
    </g>
   </g>
  </g>
  <g id="axes_3">
   <g id="patch_9">
    <path d="M 533.16733 78.23376 
L 587.070814 78.23376 
L 587.070814 49.29408 
L 533.16733 49.29408 
z
" clip-path="url(#pf361c58012)" style="fill: url(#hb20987c906); stroke: #111111; stroke-linejoin: miter"/>
   </g>
   <g id="patch_10">
    <path d="M 587.070814 63.76392 
Q 623.82319 63.76392 659.345728 63.76392 
" clip-path="url(#pf361c58012)" style="fill: none; stroke: #111111; stroke-width: 1.1; stroke-linecap: round"/>
    <path d="M 655.345728 61.76392 
L 659.345728 63.76392 
L 655.345728 65.76392 
z
" clip-path="url(#pf361c58012)" style="fill: #111111; stroke: #111111; stroke-width: 1.1; stroke-linecap: round"/>
   </g>
   <g id="patch_11">
    <path d="M 533.16733 217.6704 
Q 569.919706 217.6704 605.442244 217.6704 
" clip-path="url(#pf361c58012)" style="fill: none; stroke: #111111; stroke-width: 1.1; stroke-linecap: round"/>
    <path d="M 601.442244 215.6704 
L 605.442244 217.6704 
L 601.442244 219.6704 
z
" clip-path="url(#pf361c58012)" style="fill: #111111; stroke: #111111; stroke-width: 1.1; stroke-linecap: round"/>
   </g>
   <g id="line2d_7">
    <path d="M 493.964796 62.44848 
L 724.279683 62.44848 
" clip-path="url(#pf361c58012)" style="fill: none; stroke-dasharray: 5,4; stroke-dashoffset: 0; stroke: #111111"/>
   </g>
   <g id="line2d_8">
    <path d="M 533.16733 217.6704 
L 533.16733 49.29408 
" clip-path="url(#pf361c58012)" style="fill: none; stroke: #111111; stroke-linecap: square"/>
   </g>
   <g id="line2d_9">
    <path d="M 533.16733 49.29408 
L 533.16733 22.98528 
" clip-path="url(#pf361c58012)" style="fill: none; stroke: #111111; stroke-linecap: square"/>
   </g>
   <g id="line2d_10">
    <path d="M 587.070814 49.29408 
L 587.070814 22.98528 
" clip-path="url(#pf361c58012)" style="fill: none; stroke: #111111; stroke-linecap: square"/>
   </g>
   <g id="line2d_11">
    <path d="M 506.215588 63.76392 
L 533.16733 63.76392 
" clip-path="url(#pf361c58012)" style="fill: none; stroke: #111111; stroke-linecap: square"/>
   </g>
   <g id="patch_12">
    <path d="M 513.566063 75.112699 
Q 513.566063 63.763653 513.566063 52.414607 
" style="fill: none; stroke: #111111; stroke-linecap: round"/>
    <path d="M 515.566063 71.112699 
L 513.566063 75.112699 
L 511.566063 71.112699 
" style="fill: none; stroke: #111111; stroke-linecap: round"/>
    <path d="M 511.566063 56.414607 
L 513.566063 52.414607 
L 515.566063 56.414607 
" style="fill: none; stroke: #111111; stroke-linecap: round"/>
   </g>
   <g id="patch_13">
    <path d="M 583.955746 28.24704 
Q 560.120096 28.24704 536.284447 28.24704 
" style="fill: none; stroke: #111111; stroke-linecap: round"/>
    <path d="M 579.955746 26.24704 
L 583.955746 28.24704 
L 579.955746 30.24704 
" style="fill: none; stroke: #111111; stroke-linecap: round"/>
    <path d="M 540.284447 30.24704 
L 536.284447 28.24704 
L 540.284447 26.24704 
" style="fill: none; stroke: #111111; stroke-linecap: round"/>
   </g>
   <g id="text_12">
    <!-- $a/2$ -->
    <g transform="translate(484.620271 66.491459) scale(0.105 -0.105)">
     <defs>
      <path id="DejaVuSans-Oblique-44" d="M 3438 1997 
L 3047 0 
L 2472 0 
L 2578 531 
Q 2325 219 2001 64 
Q 1678 -91 1281 -91 
Q 834 -91 548 182 
Q 263 456 263 884 
Q 263 1497 752 1853 
Q 1241 2209 2100 2209 
L 2900 2209 
L 2931 2363 
Q 2938 2388 2941 2417 
Q 2944 2447 2944 2509 
Q 2944 2788 2717 2942 
Q 2491 3097 2081 3097 
Q 1800 3097 1504 3025 
Q 1209 2953 897 2809 
L 997 3341 
Q 1322 3463 1633 3523 
Q 1944 3584 2234 3584 
Q 2853 3584 3176 3315 
Q 3500 3047 3500 2534 
Q 3500 2431 3484 2292 
Q 3469 2153 3438 1997 
z
M 2816 1759 
L 2241 1759 
Q 1534 1759 1195 1570 
Q 856 1381 856 984 
Q 856 709 1029 553 
Q 1203 397 1509 397 
Q 1978 397 2328 733 
Q 2678 1069 2791 1631 
L 2816 1759 
z
" transform="scale(0.015625)"/>
      <path id="DejaVuSans-12" d="M 1625 4666 
L 2156 4666 
L 531 -594 
L 0 -594 
L 1625 4666 
z
" transform="scale(0.015625)"/>
      <path id="DejaVuSans-15" d="M 1228 531 
L 3431 531 
L 3431 0 
L 469 0 
L 469 531 
Q 828 903 1448 1529 
Q 2069 2156 2228 2338 
Q 2531 2678 2651 2914 
Q 2772 3150 2772 3378 
Q 2772 3750 2511 3984 
Q 2250 4219 1831 4219 
Q 1534 4219 1204 4116 
Q 875 4013 500 3803 
L 500 4441 
Q 881 4594 1212 4672 
Q 1544 4750 1819 4750 
Q 2544 4750 2975 4387 
Q 3406 4025 3406 3419 
Q 3406 3131 3298 2873 
Q 3191 2616 2906 2266 
Q 2828 2175 2409 1742 
Q 1991 1309 1228 531 
z
" transform="scale(0.015625)"/>
     </defs>
     <use xlink:href="#DejaVuSans-Oblique-44" transform="translate(0 0.78125)"/>
     <use xlink:href="#DejaVuSans-12" transform="translate(61.279297 0.78125)"/>
     <use xlink:href="#DejaVuSans-15" transform="translate(94.970703 0.78125)"/>
    </g>
   </g>
   <g id="text_13">
    <!-- $a$ -->
    <g transform="translate(502.805588 45.574302) scale(0.11 -0.11)">
     <use xlink:href="#DejaVuSans-Oblique-44"/>
    </g>
   </g>
   <g id="text_14">
    <!-- $0.85\,f'_c$ -->
    <g transform="translate(541.954072 19.147379) scale(0.105 -0.105)">
     <defs>
      <path id="DejaVuSans-1b" d="M 2034 2216 
Q 1584 2216 1326 1975 
Q 1069 1734 1069 1313 
Q 1069 891 1326 650 
Q 1584 409 2034 409 
Q 2484 409 2743 651 
Q 3003 894 3003 1313 
Q 3003 1734 2745 1975 
Q 2488 2216 2034 2216 
z
M 1403 2484 
Q 997 2584 770 2862 
Q 544 3141 544 3541 
Q 544 4100 942 4425 
Q 1341 4750 2034 4750 
Q 2731 4750 3128 4425 
Q 3525 4100 3525 3541 
Q 3525 3141 3298 2862 
Q 3072 2584 2669 2484 
Q 3125 2378 3379 2068 
Q 3634 1759 3634 1313 
Q 3634 634 3220 271 
Q 2806 -91 2034 -91 
Q 1263 -91 848 271 
Q 434 634 434 1313 
Q 434 1759 690 2068 
Q 947 2378 1403 2484 
z
M 1172 3481 
Q 1172 3119 1398 2916 
Q 1625 2713 2034 2713 
Q 2441 2713 2670 2916 
Q 2900 3119 2900 3481 
Q 2900 3844 2670 4047 
Q 2441 4250 2034 4250 
Q 1625 4250 1398 4047 
Q 1172 3844 1172 3481 
z
" transform="scale(0.015625)"/>
      <path id="DejaVuSans-18" d="M 691 4666 
L 3169 4666 
L 3169 4134 
L 1269 4134 
L 1269 2991 
Q 1406 3038 1543 3061 
Q 1681 3084 1819 3084 
Q 2600 3084 3056 2656 
Q 3513 2228 3513 1497 
Q 3513 744 3044 326 
Q 2575 -91 1722 -91 
Q 1428 -91 1123 -41 
Q 819 9 494 109 
L 494 744 
Q 775 591 1075 516 
Q 1375 441 1709 441 
Q 2250 441 2565 725 
Q 2881 1009 2881 1497 
Q 2881 1984 2565 2268 
Q 2250 2553 1709 2553 
Q 1456 2553 1204 2497 
Q 953 2441 691 2322 
L 691 4666 
z
" transform="scale(0.015625)"/>
      <path id="DejaVuSans-Oblique-49" d="M 3059 4863 
L 2969 4384 
L 2419 4384 
Q 2106 4384 1964 4261 
Q 1822 4138 1753 3809 
L 1691 3500 
L 2638 3500 
L 2553 3053 
L 1606 3053 
L 1013 0 
L 434 0 
L 1031 3053 
L 481 3053 
L 563 3500 
L 1113 3500 
L 1159 3744 
Q 1278 4363 1576 4613 
Q 1875 4863 2516 4863 
L 3059 4863 
z
" transform="scale(0.015625)"/>
      <path id="Cmsy10-49" d="M 225 347 
Q 184 359 184 409 
L 966 3316 
Q 1003 3434 1093 3506 
Q 1184 3578 1300 3578 
Q 1450 3578 1564 3479 
Q 1678 3381 1678 3231 
Q 1678 3166 1644 3084 
L 488 319 
Q 466 275 428 275 
Q 394 275 320 306 
Q 247 338 225 347 
z
" transform="scale(0.015625)"/>
     </defs>
     <use xlink:href="#DejaVuSans-13" transform="translate(0 0.565625)"/>
     <use xlink:href="#DejaVuSans-11" transform="translate(63.623047 0.565625)"/>
     <use xlink:href="#DejaVuSans-1b" transform="translate(95.410156 0.565625)"/>
     <use xlink:href="#DejaVuSans-18" transform="translate(159.033203 0.565625)"/>
     <use xlink:href="#DejaVuSans-Oblique-49" transform="translate(238.891926 0.565625)"/>
     <use xlink:href="#Cmsy10-49" transform="translate(281.544713 41.865625) scale(0.7)"/>
     <use xlink:href="#DejaVuSans-Oblique-46" transform="translate(304.479283 -14.434326) scale(0.7)"/>
    </g>
   </g>
   <g id="text_15">
    <!-- $C_c = 0.85 f'_c a b$ -->
    <g transform="translate(667.926041 66.897631) scale(0.11 -0.11)">
     <defs>
      <path id="DejaVuSans-Oblique-26" d="M 4447 4306 
L 4319 3641 
Q 4019 3944 3683 4091 
Q 3347 4238 2956 4238 
Q 2422 4238 2017 3981 
Q 1613 3725 1319 3200 
Q 1131 2863 1032 2486 
Q 934 2109 934 1728 
Q 934 1091 1264 756 
Q 1594 422 2222 422 
Q 2656 422 3056 561 
Q 3456 700 3834 978 
L 3688 231 
Q 3316 72 2936 -9 
Q 2556 -91 2175 -91 
Q 1278 -91 773 396 
Q 269 884 269 1753 
Q 269 2309 461 2846 
Q 653 3384 1013 3828 
Q 1394 4300 1883 4525 
Q 2372 4750 3022 4750 
Q 3422 4750 3780 4639 
Q 4138 4528 4447 4306 
z
" transform="scale(0.015625)"/>
     </defs>
     <use xlink:href="#DejaVuSans-Oblique-26" transform="translate(0 0.565625)"/>
     <use xlink:href="#DejaVuSans-Oblique-46" transform="translate(69.824219 -14.434326) scale(0.7)"/>
     <use xlink:href="#DejaVuSans-20" transform="translate(130.527344 0.565625)"/>
     <use xlink:href="#DejaVuSans-13" transform="translate(233.798828 0.565625)"/>
     <use xlink:href="#DejaVuSans-11" transform="translate(297.421875 0.565625)"/>
     <use xlink:href="#DejaVuSans-1b" transform="translate(329.208984 0.565625)"/>
     <use xlink:href="#DejaVuSans-18" transform="translate(392.832031 0.565625)"/>
     <use xlink:href="#DejaVuSans-Oblique-49" transform="translate(456.455078 0.565625)"/>
     <use xlink:href="#Cmsy10-49" transform="translate(499.107865 41.865625) scale(0.7)"/>
     <use xlink:href="#DejaVuSans-Oblique-46" transform="translate(522.042435 -14.434326) scale(0.7)"/>
     <use xlink:href="#DejaVuSans-Oblique-44" transform="translate(563.263138 0.565625)"/>
     <use xlink:href="#DejaVuSans-Oblique-45" transform="translate(624.542435 0.565625)"/>
    </g>
   </g>
   <g id="text_16">
    <!-- $T = A_s f_y$ -->
    <g transform="translate(614.022557 220.2004) scale(0.11 -0.11)">
     <defs>
      <path id="DejaVuSans-Oblique-37" d="M 378 4666 
L 4325 4666 
L 4225 4134 
L 2559 4134 
L 1759 0 
L 1125 0 
L 1925 4134 
L 275 4134 
L 378 4666 
z
" transform="scale(0.015625)"/>
      <path id="DejaVuSans-Oblique-5c" d="M 1588 -325 
Q 1188 -997 936 -1164 
Q 684 -1331 294 -1331 
L -159 -1331 
L -63 -850 
L 269 -850 
Q 509 -850 678 -719 
Q 847 -588 1056 -206 
L 1234 128 
L 459 3500 
L 1069 3500 
L 1650 819 
L 3256 3500 
L 3859 3500 
L 1588 -325 
z
" transform="scale(0.015625)"/>
     </defs>
     <use xlink:href="#DejaVuSans-Oblique-37" transform="translate(0 0.015625)"/>
     <use xlink:href="#DejaVuSans-20" transform="translate(80.566406 0.015625)"/>
     <use xlink:href="#DejaVuSans-Oblique-24" transform="translate(183.837891 0.015625)"/>
     <use xlink:href="#DejaVuSans-Oblique-56" transform="translate(252.246094 -14.984326) scale(0.7)"/>
     <use xlink:href="#DejaVuSans-Oblique-49" transform="translate(291.450195 0.015625)"/>
     <use xlink:href="#DejaVuSans-Oblique-5c" transform="translate(326.655273 -14.984326) scale(0.7)"/>
    </g>
   </g>
   <g id="text_17">
    <!-- (c) Stress diagram -->
    <g transform="translate(551.955597 259.76448) scale(0.105 -0.105)">
     <use xlink:href="#DejaVuSans-Bold-b"/>
     <use xlink:href="#DejaVuSans-Bold-46" transform="translate(45.703125 0)"/>
     <use xlink:href="#DejaVuSans-Bold-c" transform="translate(104.984375 0)"/>
     <use xlink:href="#DejaVuSans-Bold-3" transform="translate(150.6875 0)"/>
     <use xlink:href="#DejaVuSans-Bold-36" transform="translate(185.5 0)"/>
     <use xlink:href="#DejaVuSans-Bold-57" transform="translate(257.515625 0)"/>
     <use xlink:href="#DejaVuSans-Bold-55" transform="translate(305.3125 0)"/>
     <use xlink:href="#DejaVuSans-Bold-48" transform="translate(354.625 0)"/>
     <use xlink:href="#DejaVuSans-Bold-56" transform="translate(422.453125 0)"/>
     <use xlink:href="#DejaVuSans-Bold-56" transform="translate(481.96875 0)"/>
     <use xlink:href="#DejaVuSans-Bold-3" transform="translate(541.484375 0)"/>
     <use xlink:href="#DejaVuSans-Bold-47" transform="translate(576.296875 0)"/>
     <use xlink:href="#DejaVuSans-Bold-4c" transform="translate(647.875 0)"/>
     <use xlink:href="#DejaVuSans-Bold-44" transform="translate(682.15625 0)"/>
     <use xlink:href="#DejaVuSans-Bold-4a" transform="translate(749.640625 0)"/>
     <use xlink:href="#DejaVuSans-Bold-55" transform="translate(821.21875 0)"/>
     <use xlink:href="#DejaVuSans-Bold-44" transform="translate(870.53125 0)"/>
     <use xlink:href="#DejaVuSans-Bold-50" transform="translate(938.015625 0)"/>
    </g>
   </g>
  </g>
 </g>
 <defs>
  <clipPath id="p2269b76e33">
   <rect x="7.2" y="7.2" width="205.813303" height="263.088"/>
  </clipPath>
  <clipPath id="pb5946efa38">
   <rect x="255.482715" y="7.2" width="186.212036" height="263.088"/>
  </clipPath>
  <clipPath id="pf361c58012">
   <rect x="484.164163" y="7.2" width="245.015837" height="263.088"/>
  </clipPath>
 </defs>
 <defs>
  <pattern id="hc486080f9b" patternUnits="userSpaceOnUse" x="0" y="0" width="72" height="72">
   <rect x="0" y="0" width="73" height="73" fill="#ffffff"/>
   <path d="M -36 36 
L 36 -36 
M -32 40 
L 40 -32 
M -28 44 
L 44 -28 
M -24 48 
L 48 -24 
M -20 52 
L 52 -20 
M -16 56 
L 56 -16 
M -12 60 
L 60 -12 
M -8 64 
L 64 -8 
M -4 68 
L 68 -4 
M 0 72 
L 72 0 
M 4 76 
L 76 4 
M 8 80 
L 80 8 
M 12 84 
L 84 12 
M 16 88 
L 88 16 
M 20 92 
L 92 20 
M 24 96 
L 96 24 
M 28 100 
L 100 28 
M 32 104 
L 104 32 
M 36 108 
L 108 36 
" style="fill: #111111; stroke: #111111; stroke-width: 0.7; stroke-linecap: butt; stroke-linejoin: miter"/>
  </pattern>
  <pattern id="hb20987c906" patternUnits="userSpaceOnUse" x="0" y="0" width="72" height="72">
   <rect x="0" y="0" width="73" height="73" fill="#ffffff"/>
   <path d="M 0 70 
L 72 70 
M 0 66 
L 72 66 
M 0 62 
L 72 62 
M 0 58 
L 72 58 
M 0 54 
L 72 54 
M 0 50 
L 72 50 
M 0 46 
L 72 46 
M 0 42 
L 72 42 
M 0 38 
L 72 38 
M 0 34 
L 72 34 
M 0 30 
L 72 30 
M 0 26 
L 72 26 
M 0 22 
L 72 22 
M 0 18 
L 72 18 
M 0 14 
L 72 14 
M 0 10 
L 72 10 
M 0 6 
L 72 6 
M 0 2 
L 72 2 
" style="fill: #111111; stroke: #111111; stroke-width: 0.7; stroke-linecap: butt; stroke-linejoin: miter"/>
  </pattern>
 </defs>
</svg>
