<svg xmlns="http://www.w3.org/2000/svg" width="360" height="240" viewBox="0 0 360 240" role="img" aria-labelledby="title desc">
  <title id="title">RHS section guide</title>
  <desc id="desc">Dimension-labelled rectangular hollow section guide.</desc>
  <defs><style>
    .panel{fill:#fbfdff}.section{fill:#eef8ff;stroke:#263732;stroke-width:2.4}.void{fill:#fbfdff;stroke:#263732;stroke-width:2.4}.guide{stroke:#9aa9a3;stroke-width:1.2}.dim{stroke:#58736b;stroke-width:1.55}.arrow{fill:#58736b}.axis{stroke:#9aa9a3;stroke-width:1.1;stroke-dasharray:5 5}.label{font:800 15px Aptos,Calibri,Arial,sans-serif;fill:#425c55}
  </style></defs>
  <rect class="panel" width="360" height="240" rx="14"/>
  <rect class="section" x="90" y="48" width="180" height="130" rx="12"/>
  <rect class="void" x="113" y="71" width="134" height="84" rx="5"/>
  <line class="axis" x1="62" y1="113" x2="298" y2="113"/><line class="axis" x1="180" y1="27" x2="180" y2="199"/>
  <line class="dim" x1="90" y1="210" x2="270" y2="210"/><path class="arrow" d="M90 210l8-4v8zM270 210l-8-4v8z"/><line class="guide" x1="90" y1="182" x2="90" y2="218"/><line class="guide" x1="270" y1="182" x2="270" y2="218"/><text class="label" x="180" y="232" text-anchor="middle">b</text>
  <line class="dim" x1="62" y1="48" x2="62" y2="178"/><path class="arrow" d="M62 48l-4 8h8zM62 178l-4-8h8z"/><line class="guide" x1="70" y1="48" x2="90" y2="48"/><line class="guide" x1="70" y1="178" x2="90" y2="178"/><text class="label" x="45" y="118" text-anchor="middle">d</text>
  <line class="dim" x1="247" y1="91" x2="270" y2="91"/><path class="arrow" d="M247 91l7-3.5v7zM270 91l-7-3.5v7z"/><text class="label" x="258" y="82" text-anchor="middle">t</text>
</svg>
